<?xml version="1.0" encoding="UTF-8" standalone="no"?>
<svg
   xmlns:dc="http://purl.org/dc/elements/1.1/"
   xmlns:cc="http://creativecommons.org/ns#"
   xmlns:rdf="http://www.w3.org/1999/02/22-rdf-syntax-ns#"
   xmlns:svg="http://www.w3.org/2000/svg"
   xmlns="http://www.w3.org/2000/svg"
   viewBox="0 0 5197.0801 3260.5867"
   height="3260.5867"
   width="5197.0801"
   xml:space="preserve"
   id="svg2"
   version="1.1"><metadata
     id="metadata8"><rdf:RDF><cc:Work
         rdf:about=""><dc:format>image/svg+xml</dc:format><dc:type
           rdf:resource="http://purl.org/dc/dcmitype/StillImage" /></cc:Work></rdf:RDF></metadata><defs
     id="defs6" /><g
     transform="matrix(1.3333333,0,0,-1.3333333,0,3260.5867)"
     id="g10"><g
       transform="scale(0.1)"
       id="g12"><g
         transform="scale(2.39036)"
         id="g14"><path
           id="path16"
           style="fill:#061713;fill-opacity:1;fill-rule:nonzero;stroke:none"
           d="M 16300,8.11527 H 1.22072 V 9994.05 H 16300 V 8.11527" /></g><g
         transform="scale(1.4653)"
         id="g18"><path
           id="path20"
           style="fill:none;stroke:#717577;stroke-width:34.12269974;stroke-linecap:butt;stroke-linejoin:miter;stroke-miterlimit:10;stroke-dasharray:none;stroke-opacity:0.1"
           d="M 1.99138,16187.7 C 491.481,16130.2 1028.87,16154.4 1610.99,16300" /></g><g
         transform="scale(1.59481)"
         id="g22"><path
           id="path24"
           style="fill:none;stroke:#717577;stroke-width:31.35169983;stroke-linecap:butt;stroke-linejoin:miter;stroke-miterlimit:10;stroke-dasharray:none;stroke-opacity:.1"
           d="m 14286.1,14976.3 c 586.1,-177.9 1265.8,-225.2 2013.9,0" /></g><g
         transform="scale(1.4653)"
         id="g26"><path
           id="path28"
           style="fill:none;stroke:#717577;stroke-width:34.12269974;stroke-linecap:butt;stroke-linejoin:miter;stroke-miterlimit:10;stroke-dasharray:none;stroke-opacity:0.1"
           d="M 1.99138,15875.1 C 735.336,15788.9 1576.04,15886.3 2513.71,16300" /></g><g
         transform="scale(1.6638)"
         id="g30"><path
           id="path32"
           style="fill:none;stroke:#717577;stroke-width:30.0515995;stroke-linecap:butt;stroke-linejoin:miter;stroke-miterlimit:10;stroke-dasharray:none;stroke-opacity:0.1"
           d="m 13027,14355.3 c 833,-437.3 1965.8,-672.4 3273,0" /></g><g
         transform="scale(1.4653)"
         id="g34"><path
           id="path36"
           style="fill:none;stroke:#717577;stroke-width:34.12269974;stroke-linecap:butt;stroke-linejoin:miter;stroke-miterlimit:10;stroke-dasharray:none;stroke-opacity:0.1"
           d="M 1.99138,15562.4 C 893.271,15457.7 1943.16,15624.1 3132.97,16300" /></g><g
         transform="scale(1.71149)"
         id="g38"><path
           id="path40"
           style="fill:none;stroke:#717577;stroke-width:29.21430016;stroke-linecap:butt;stroke-linejoin:miter;stroke-miterlimit:10;stroke-dasharray:none;stroke-opacity:0.1"
           d="m 12222,13955.3 c 907.3,-625 2358.7,-1143 4078,0" /></g><g
         transform="scale(1.4653)"
         id="g42"><path
           id="path44"
           style="fill:none;stroke:#717577;stroke-width:34.12269974;stroke-linecap:butt;stroke-linejoin:miter;stroke-miterlimit:10;stroke-dasharray:none;stroke-opacity:0.1"
           d="M 1.99138,15249.8 C 1017.35,15130.5 2238.61,15363.1 3638.02,16300" /></g><g
         transform="scale(1.75016)"
         id="g46"><path
           id="path48"
           style="fill:none;stroke:#717577;stroke-width:28.56879997;stroke-linecap:butt;stroke-linejoin:miter;stroke-miterlimit:10;stroke-dasharray:none;stroke-opacity:0.1"
           d="m 11607.7,13647 c 886.2,-739.9 2610.8,-1642.6 4692.3,0" /></g><g
         transform="scale(1.4653)"
         id="g50"><path
           id="path52"
           style="fill:none;stroke:#717577;stroke-width:34.12269974;stroke-linecap:butt;stroke-linejoin:miter;stroke-miterlimit:10;stroke-dasharray:none;stroke-opacity:0.1"
           d="M 1.99138,14937.1 C 1122.05,14805.5 2492.68,15102.1 4076.6,16300" /></g><g
         transform="scale(1.4653)"
         id="g54"><path
           id="path56"
           style="fill:none;stroke:#717577;stroke-width:34.12269974;stroke-linecap:butt;stroke-linejoin:miter;stroke-miterlimit:10;stroke-dasharray:none;stroke-opacity:0.1"
           d="M 1.99138,14624.5 C 1213.79,14482.1 2718.79,14840.9 4469.96,16300" /></g><g
         transform="scale(1.78348)"
         id="g58"><path
           id="path60"
           style="fill:none;stroke:#717577;stroke-width:28.03499985;stroke-linecap:butt;stroke-linejoin:miter;stroke-miterlimit:10;stroke-dasharray:none;stroke-opacity:0.1"
           d="m 11107,13392 c 773,-757.7 2758.2,-2186.8 5193,0" /></g><g
         transform="scale(1.4653)"
         id="g62"><path
           id="path64"
           style="fill:none;stroke:#717577;stroke-width:34.12269974;stroke-linecap:butt;stroke-linejoin:miter;stroke-miterlimit:10;stroke-dasharray:none;stroke-opacity:0.1"
           d="M 1.99138,14311.9 C 1296.01,14159.8 2924.47,14579.3 4830.01,16300" /></g><g
         transform="scale(1.81315)"
         id="g66"><path
           id="path68"
           style="fill:none;stroke:#717577;stroke-width:27.57640076;stroke-linecap:butt;stroke-linejoin:miter;stroke-miterlimit:10;stroke-dasharray:none;stroke-opacity:0.1"
           d="m 10686.8,13172.9 c 502.5,-578.8 2774.1,-2830.4 5613.2,0" /></g><g
         transform="scale(1.4653)"
         id="g70"><path
           id="path72"
           style="fill:none;stroke:#717577;stroke-width:34.12269974;stroke-linecap:butt;stroke-linejoin:miter;stroke-miterlimit:10;stroke-dasharray:none;stroke-opacity:0.1"
           d="M 1.99138,13999.2 C 1334.39,13842.6 3021.29,14292 5000.08,16143.7 c 56.94,53.3 113.6,105.4 169.92,156.3" /></g><g
         transform="scale(1.84071)"
         id="g74"><path
           id="path76"
           style="fill:none;stroke:#717577;stroke-width:27.16349983;stroke-linecap:butt;stroke-linejoin:miter;stroke-miterlimit:10;stroke-dasharray:none;stroke-opacity:0.1"
           d="m 10343,12975.7 c 54.2,-77.9 81.4,-124.5 81.4,-124.5 0,0 2518.3,-3375.53 5753.6,0 40.8,42.6 81.4,84 122,124.5" /></g><g
         transform="scale(1.87037)"
         id="g78"><path
           id="path80"
           style="fill:none;stroke:#717577;stroke-width:26.73270035;stroke-linecap:butt;stroke-linejoin:miter;stroke-miterlimit:10;stroke-dasharray:none;stroke-opacity:0.1"
           d="m 9992.9,12769.9 c 176.4,-214.3 266.2,-367.4 266.2,-367.4 0,0 2478.3,-3322.04 5662.3,0 127.4,132.9 253.6,255.1 378.6,367.4" /></g><g
         transform="scale(1.4653)"
         id="g82"><path
           id="path84"
           style="fill:none;stroke:#717577;stroke-width:34.12269974;stroke-linecap:butt;stroke-linejoin:miter;stroke-miterlimit:10;stroke-dasharray:none;stroke-opacity:0.1"
           d="M 1.99138,13686.6 C 1334.39,13530 3021.29,13979.4 5000.08,15831 c 179.1,167.7 355.47,323.8 529.09,469" /></g><g
         transform="scale(1.9037)"
         id="g86"><path
           id="path88"
           style="fill:none;stroke:#717577;stroke-width:26.26469994;stroke-linecap:butt;stroke-linejoin:miter;stroke-miterlimit:10;stroke-dasharray:none;stroke-opacity:0.1"
           d="m 9603.51,12546.3 c 314.71,-326.8 475.99,-601.6 475.99,-601.6 0,0 2434.9,-3263.87 5563.1,0 222.9,232.5 442.2,431.9 657.4,601.6" /></g><g
         transform="scale(1.4653)"
         id="g90"><path
           id="path92"
           style="fill:none;stroke:#717577;stroke-width:34.12269974;stroke-linecap:butt;stroke-linejoin:miter;stroke-miterlimit:10;stroke-dasharray:none;stroke-opacity:0.1"
           d="M 1.99138,13373.9 C 1334.39,13217.4 3021.29,13666.7 5000.08,15518.4 c 315.32,295.1 622.07,554.5 920.12,781.6" /></g><g
         transform="scale(1.94237)"
         id="g94"><path
           id="path96"
           style="fill:none;stroke:#717577;stroke-width:25.74169922;stroke-linecap:butt;stroke-linejoin:miter;stroke-miterlimit:10;stroke-dasharray:none;stroke-opacity:0.1"
           d="m 9164.97,12296.5 c 471.07,-411.8 713.82,-825.5 713.82,-825.5 0,0 2386.41,-3198.87 5452.41,0 331.6,346 655.3,617.1 968.8,825.5" /></g><g
         transform="scale(2.39036)"
         id="g98"><path
           id="path100"
           style="fill:none;stroke:#717577;stroke-width:20.91729927;stroke-linecap:butt;stroke-linejoin:miter;stroke-miterlimit:10;stroke-dasharray:none;stroke-opacity:0.1"
           d="m 16300,9893.74 c -43,32.86 -88.1,65.76 -135.2,98.22" /></g><g
         transform="scale(1.4653)"
         id="g102"><path
           id="path104"
           style="fill:none;stroke:#717577;stroke-width:34.12269974;stroke-linecap:butt;stroke-linejoin:miter;stroke-miterlimit:10;stroke-dasharray:none;stroke-opacity:0.1"
           d="M 1.99138,13061.3 C 1334.39,12904.7 3021.29,13354.1 5000.08,15205.8 c 470.78,440.5 922.52,801.8 1354.73,1094.2" /></g><g
         transform="scale(1.99006)"
         id="g106"><path
           id="path108"
           style="fill:none;stroke:#717577;stroke-width:25.12490082;stroke-linecap:butt;stroke-linejoin:miter;stroke-miterlimit:10;stroke-dasharray:none;stroke-opacity:0.1"
           d="m 8653.45,12001.8 c 651.04,-460.6 988.61,-1035.9 988.61,-1035.9 0,0 2329.24,-3122.19 5321.74,0 463.4,483.5 910.8,817.2 1336.2,1035.9" /></g><g
         transform="scale(2.39036)"
         id="g110"><path
           id="path112"
           style="fill:none;stroke:#717577;stroke-width:20.91729927;stroke-linecap:butt;stroke-linejoin:miter;stroke-miterlimit:10;stroke-dasharray:none;stroke-opacity:0.1"
           d="m 15848.3,9991.96 c 169,-88.72 320.3,-189.37 451.7,-289.87" /></g><g
         transform="scale(1.4653)"
         id="g114"><path
           id="path116"
           style="fill:none;stroke:#717577;stroke-width:34.12269974;stroke-linecap:butt;stroke-linejoin:miter;stroke-miterlimit:10;stroke-dasharray:none;stroke-opacity:0.1"
           d="M 1.99138,12748.7 C 1334.39,12592.1 3021.29,13041.4 5000.08,14893.1 c 655.1,613.1 1273.19,1072.4 1853.26,1406.9" /></g><g
         transform="scale(2.05906)"
         id="g118"><path
           id="path120"
           style="fill:none;stroke:#717577;stroke-width:24.28289986;stroke-linecap:butt;stroke-linejoin:miter;stroke-miterlimit:10;stroke-dasharray:none;stroke-opacity:0.1"
           d="m 8000.73,11599.7 c 866.13,-453.3 1318.23,-1223.7 1318.23,-1223.7 0,0 2251.24,-3017.62 5143.44,0 651.1,679.4 1269.8,1052.8 1837.6,1223.7" /></g><g
         transform="scale(2.39036)"
         id="g122"><path
           id="path124"
           style="fill:none;stroke:#717577;stroke-width:20.91729927;stroke-linecap:butt;stroke-linejoin:miter;stroke-miterlimit:10;stroke-dasharray:none;stroke-opacity:0.1"
           d="m 15384.2,9991.96 c 363.9,-110.4 673.6,-296.3 915.8,-481.52" /></g><g
         transform="scale(1.4653)"
         id="g126"><path
           id="path128"
           style="fill:none;stroke:#717577;stroke-width:34.12269974;stroke-linecap:butt;stroke-linejoin:miter;stroke-miterlimit:10;stroke-dasharray:none;stroke-opacity:0.1"
           d="M 1.99138,12436 C 1334.39,12279.4 3021.29,12728.8 5000.08,14580.5 c 889.7,832.6 1711.16,1381.6 2461.67,1719.5" /></g><g
         transform="scale(2.39036)"
         id="g130"><path
           id="path132"
           style="fill:none;stroke:#717577;stroke-width:20.91729927;stroke-linecap:butt;stroke-linejoin:miter;stroke-miterlimit:10;stroke-dasharray:none;stroke-opacity:0.1"
           d="m 6410.37,9991.96 c 1059.29,-295.3 1616.99,-1245.72 1616.99,-1245.72 0,0 1939.21,-2599.37 4430.54,0 1665.8,1737.86 3084.6,1151.89 3842.1,572.55" /></g><g
         transform="scale(1.4653)"
         id="g134"><path
           id="path136"
           style="fill:none;stroke:#717577;stroke-width:34.12269974;stroke-linecap:butt;stroke-linejoin:miter;stroke-miterlimit:10;stroke-dasharray:none;stroke-opacity:0.1"
           d="M 1.99138,12123.4 C 1334.39,11966.8 3021.29,12416.2 5000.08,14267.8 6251.9,15439.3 7368.52,16049.4 8342.86,16300" /></g><g
         transform="scale(2.39036)"
         id="g138"><path
           id="path140"
           style="fill:none;stroke:#717577;stroke-width:20.91729927;stroke-linecap:butt;stroke-linejoin:miter;stroke-miterlimit:10;stroke-dasharray:none;stroke-opacity:0.1"
           d="M 1.24197,7240.03 C 818.007,7144.05 1852.08,7419.51 3065.09,8554.59 c 3203.21,2997.51 4962.32,0 4962.32,0 0,0 1939.12,-2599.38 4430.49,0 1665.8,1737.91 3084.6,1151.89 3842.1,572.56" /></g><g
         transform="scale(2.39036)"
         id="g142"><path
           id="path144"
           style="fill:none;stroke:#717577;stroke-width:20.91729927;stroke-linecap:butt;stroke-linejoin:miter;stroke-miterlimit:10;stroke-dasharray:none;stroke-opacity:0.1"
           d="M 1.24197,7048.38 C 818.007,6952.4 1852.08,7227.85 3065.09,8362.94 c 3203.21,2997.46 4962.32,0 4962.32,0 0,0 1939.12,-2599.38 4430.49,0 1665.8,1737.86 3084.6,1151.9 3842.1,572.56" /></g><g
         transform="scale(2.39036)"
         id="g146"><path
           id="path148"
           style="fill:none;stroke:#717577;stroke-width:20.91729927;stroke-linecap:butt;stroke-linejoin:miter;stroke-miterlimit:10;stroke-dasharray:none;stroke-opacity:0.1"
           d="M 1.24197,6856.74 C 818.007,6760.75 1852.08,7036.21 3065.09,8171.29 c 3203.21,2997.51 4962.32,0 4962.32,0 0,0 1939.12,-2599.37 4430.49,0 1665.8,1737.91 3084.6,1151.9 3842.1,572.56" /></g><g
         transform="scale(2.39036)"
         id="g150"><path
           id="path152"
           style="fill:none;stroke:#717577;stroke-width:20.91729927;stroke-linecap:butt;stroke-linejoin:miter;stroke-miterlimit:10;stroke-dasharray:none;stroke-opacity:0.1"
           d="M 1.24197,6665.09 C 818.007,6569.1 1852.08,6844.56 3065.09,7979.64 c 3203.21,2997.46 4962.32,0 4962.32,0 0,0 1939.12,-2599.37 4430.49,0 1665.8,1737.91 3084.6,1151.9 3842.1,572.55" /></g><g
         transform="scale(2.39036)"
         id="g154"><path
           id="path156"
           style="fill:none;stroke:#717577;stroke-width:20.91729927;stroke-linecap:butt;stroke-linejoin:miter;stroke-miterlimit:10;stroke-dasharray:none;stroke-opacity:0.1"
           d="M 1.24197,6473.43 C 818.007,6377.45 1852.08,6652.91 3065.09,7787.99 c 3203.21,2997.51 4962.32,0 4962.32,0 0,0 1939.12,-2599.36 4430.49,0 1665.8,1737.91 3084.6,1151.9 3842.1,572.56" /></g><g
         transform="scale(2.39036)"
         id="g158"><path
           id="path160"
           style="fill:none;stroke:#717577;stroke-width:20.91729927;stroke-linecap:butt;stroke-linejoin:miter;stroke-miterlimit:10;stroke-dasharray:none;stroke-opacity:0.1"
           d="M 1.24197,6281.78 C 818.007,6185.8 1852.08,6461.26 3065.09,7596.34 c 3203.21,2997.46 4962.32,0 4962.32,0 0,0 1939.12,-2599.36 4430.49,0 1665.8,1737.91 3084.6,1151.9 3842.1,572.56" /></g><g
         transform="scale(2.39036)"
         id="g162"><path
           id="path164"
           style="fill:none;stroke:#717577;stroke-width:20.91729927;stroke-linecap:butt;stroke-linejoin:miter;stroke-miterlimit:10;stroke-dasharray:none;stroke-opacity:0.1"
           d="M 1.24197,6090.14 C 818.007,5994.16 1852.08,6269.61 3065.09,7404.69 c 3203.21,2997.51 4962.32,0 4962.32,0 0,0 1939.12,-2599.35 4430.49,0 1665.8,1737.91 3084.6,1151.9 3842.1,572.56" /></g><g
         transform="scale(2.39036)"
         id="g166"><path
           id="path168"
           style="fill:none;stroke:#717577;stroke-width:20.91729927;stroke-linecap:butt;stroke-linejoin:miter;stroke-miterlimit:10;stroke-dasharray:none;stroke-opacity:0.1"
           d="M 1.24197,5898.48 C 818.007,5802.51 1852.08,6077.96 3065.09,7213.05 c 3203.21,2997.45 4962.32,0 4962.32,0 0,0 1939.12,-2599.36 4430.49,0 1665.8,1737.9 3084.6,1151.89 3842.1,572.55" /></g><g
         transform="scale(2.39036)"
         id="g170"><path
           id="path172"
           style="fill:none;stroke:#717577;stroke-width:20.91729927;stroke-linecap:butt;stroke-linejoin:miter;stroke-miterlimit:10;stroke-dasharray:none;stroke-opacity:0.1"
           d="M 1.24197,5706.83 C 818.007,5610.87 1852.08,5886.3 3065.09,7021.39 c 3203.21,2997.51 4962.32,0 4962.32,0 0,0 1939.12,-2599.38 4430.49,0 1665.8,1737.91 3084.6,1151.9 3842.1,572.56" /></g><g
         transform="scale(2.39036)"
         id="g174"><path
           id="path176"
           style="fill:none;stroke:#717577;stroke-width:20.91729927;stroke-linecap:butt;stroke-linejoin:miter;stroke-miterlimit:10;stroke-dasharray:none;stroke-opacity:0.1"
           d="M 1.24197,5515.19 C 818.007,5419.22 1852.08,5694.66 3065.09,6829.74 c 3203.21,2997.49 4962.32,0 4962.32,0 0,0 1939.12,-2599.38 4430.49,0 1665.8,1737.91 3084.6,1151.9 3842.1,572.56" /></g><g
         transform="scale(2.39036)"
         id="g178"><path
           id="path180"
           style="fill:none;stroke:#717577;stroke-width:20.91729927;stroke-linecap:butt;stroke-linejoin:miter;stroke-miterlimit:10;stroke-dasharray:none;stroke-opacity:0.1"
           d="M 1.24197,5323.55 C 818.007,5227.53 1852.08,5503.02 3065.09,6638.1 c 3203.21,2997.47 4962.32,0 4962.32,0 0,0 1939.12,-2599.38 4430.49,0 1665.8,1737.9 3084.6,1151.89 3842.1,572.55" /></g><g
         transform="scale(2.39036)"
         id="g182"><path
           id="path184"
           style="fill:none;stroke:#717577;stroke-width:20.91729927;stroke-linecap:butt;stroke-linejoin:miter;stroke-miterlimit:10;stroke-dasharray:none;stroke-opacity:0.1"
           d="M 1.24197,5131.9 C 818.007,5035.89 1852.08,5311.37 3065.09,6446.45 c 3203.21,2997.48 4962.32,0 4962.32,0 0,0 1939.12,-2599.38 4430.49,0 1665.8,1737.9 3084.6,1151.89 3842.1,572.55" /></g><g
         transform="scale(2.39036)"
         id="g186"><path
           id="path188"
           style="fill:none;stroke:#717577;stroke-width:20.91729927;stroke-linecap:butt;stroke-linejoin:miter;stroke-miterlimit:10;stroke-dasharray:none;stroke-opacity:0.1"
           d="M 1.24197,4940.26 C 818.007,4844.25 1852.08,5119.73 3065.09,6254.8 c 3203.21,2997.48 4962.32,0 4962.32,0 0,0 1939.12,-2599.37 4430.49,0 1665.8,1737.9 3084.6,1151.89 3842.1,572.55" /></g><g
         transform="scale(2.39036)"
         id="g190"><path
           id="path192"
           style="fill:none;stroke:#717577;stroke-width:20.91729927;stroke-linecap:butt;stroke-linejoin:miter;stroke-miterlimit:10;stroke-dasharray:none;stroke-opacity:0.1"
           d="M 1.24197,4748.57 C 818.007,4652.6 1852.08,4928.04 3065.09,6063.15 c 3203.21,2997.47 4962.32,0 4962.32,0 0,0 1939.12,-2599.37 4430.49,0 1665.8,1737.9 3084.6,1151.89 3842.1,572.55" /></g><g
         transform="scale(2.39036)"
         id="g194"><path
           id="path196"
           style="fill:none;stroke:#717577;stroke-width:20.91729927;stroke-linecap:butt;stroke-linejoin:miter;stroke-miterlimit:10;stroke-dasharray:none;stroke-opacity:0.1"
           d="M 1.24197,4556.92 C 818.007,4460.96 1852.08,4736.4 3065.09,5871.5 c 3203.21,2997.47 4962.32,0 4962.32,0 0,0 1939.12,-2599.36 4430.49,0 1665.8,1737.9 3084.6,1151.89 3842.1,572.55" /></g><g
         transform="scale(2.39036)"
         id="g198"><path
           id="path200"
           style="fill:none;stroke:#717577;stroke-width:20.91729927;stroke-linecap:butt;stroke-linejoin:miter;stroke-miterlimit:10;stroke-dasharray:none;stroke-opacity:0.1"
           d="M 1.24197,4365.28 C 818.007,4269.31 1852.08,4544.75 3065.09,5679.85 c 3203.21,2997.48 4962.32,0 4962.32,0 0,0 1939.12,-2599.35 4430.49,0 1665.8,1737.9 3084.6,1151.89 3842.1,572.55" /></g><g
         transform="scale(2.39036)"
         id="g202"><path
           id="path204"
           style="fill:none;stroke:#717577;stroke-width:20.91729927;stroke-linecap:butt;stroke-linejoin:miter;stroke-miterlimit:10;stroke-dasharray:none;stroke-opacity:0.1"
           d="M 1.24197,4173.64 C 818.007,4077.67 1852.08,4353.11 3065.09,5488.21 c 3203.21,2997.47 4962.32,0 4962.32,0 0,0 1939.12,-2599.4 4430.49,0 1665.8,1737.89 3084.6,1151.88 3842.1,572.54" /></g><g
         transform="scale(2.39036)"
         id="g206"><path
           id="path208"
           style="fill:none;stroke:#717577;stroke-width:20.91729927;stroke-linecap:butt;stroke-linejoin:miter;stroke-miterlimit:10;stroke-dasharray:none;stroke-opacity:0.1"
           d="M 1.24197,3981.99 C 818.007,3886.02 1852.08,4161.46 3065.09,5296.56 c 3203.21,2997.47 4962.32,0 4962.32,0 0,0 1939.12,-2599.4 4430.49,0 1665.8,1737.89 3084.6,1151.88 3842.1,572.55" /></g><g
         transform="scale(2.39036)"
         id="g210"><path
           id="path212"
           style="fill:none;stroke:#717577;stroke-width:20.91729927;stroke-linecap:butt;stroke-linejoin:miter;stroke-miterlimit:10;stroke-dasharray:none;stroke-opacity:0.1"
           d="M 1.24197,3790.35 C 818.007,3694.34 1852.08,3969.82 3065.09,5104.92 c 3203.21,2997.46 4962.32,0 4962.32,0 0,0 1939.12,-2599.4 4430.49,0 1665.8,1737.88 3084.6,1151.87 3842.1,572.55" /></g><g
         transform="scale(2.39036)"
         id="g214"><path
           id="path216"
           style="fill:none;stroke:#717577;stroke-width:20.91729927;stroke-linecap:butt;stroke-linejoin:miter;stroke-miterlimit:10;stroke-dasharray:none;stroke-opacity:0.1"
           d="M 1.24197,3598.7 C 818.007,3502.69 1852.08,3778.17 3065.09,4913.23 c 3203.21,2997.5 4962.32,0 4962.32,0 0,0 1939.12,-2599.35 4430.49,0 1665.8,1737.92 3084.6,1151.91 3842.1,572.59" /></g><g
         transform="scale(2.39036)"
         id="g218"><path
           id="path220"
           style="fill:none;stroke:#717577;stroke-width:20.91729927;stroke-linecap:butt;stroke-linejoin:miter;stroke-miterlimit:10;stroke-dasharray:none;stroke-opacity:0.1"
           d="M 1.24197,3407.06 C 818.007,3311.05 1852.08,3586.53 3065.09,4721.59 c 3203.21,2997.49 4962.32,0 4962.32,0 0,0 1939.12,-2599.36 4430.49,0 1665.8,1737.91 3084.6,1151.91 3842.1,572.55" /></g><g
         transform="scale(2.39036)"
         id="g222"><path
           id="path224"
           style="fill:none;stroke:#717577;stroke-width:20.91729927;stroke-linecap:butt;stroke-linejoin:miter;stroke-miterlimit:10;stroke-dasharray:none;stroke-opacity:0.1"
           d="M 1.24197,3215.41 C 818.007,3119.4 1852.08,3394.88 3065.09,4529.94 c 3203.21,2997.49 4962.32,0 4962.32,0 0,0 1939.12,-2599.35 4430.49,0 1665.8,1737.91 3084.6,1151.92 3842.1,572.55" /></g><g
         transform="scale(2.39036)"
         id="g226"><path
           id="path228"
           style="fill:none;stroke:#717577;stroke-width:20.91729927;stroke-linecap:butt;stroke-linejoin:miter;stroke-miterlimit:10;stroke-dasharray:none;stroke-opacity:0.1"
           d="M 1.24197,3023.73 C 818.007,2927.76 1852.08,3203.2 3065.09,4338.3 c 3203.21,2997.48 4962.32,0 4962.32,0 0,0 1939.12,-2599.36 4430.49,0 1665.8,1737.9 3084.6,1151.91 3842.1,572.55" /></g><g
         transform="scale(2.39036)"
         id="g230"><path
           id="path232"
           style="fill:none;stroke:#717577;stroke-width:20.91729927;stroke-linecap:butt;stroke-linejoin:miter;stroke-miterlimit:10;stroke-dasharray:none;stroke-opacity:0.1"
           d="M 1.24197,2832.08 C 818.007,2736.11 1852.08,3011.55 3065.09,4146.65 c 3203.21,2997.48 4962.32,0 4962.32,0 0,0 1939.12,-2599.35 4430.49,0 1665.8,1737.9 3084.6,1151.88 3842.1,572.55" /></g><g
         transform="scale(2.39036)"
         id="g234"><path
           id="path236"
           style="fill:none;stroke:#717577;stroke-width:20.91729927;stroke-linecap:butt;stroke-linejoin:miter;stroke-miterlimit:10;stroke-dasharray:none;stroke-opacity:0.1"
           d="M 1.24197,2640.44 C 818.007,2544.47 1852.08,2819.91 3065.09,3955.01 c 3203.21,2997.47 4962.32,0 4962.32,0 0,0 1939.12,-2599.36 4430.49,0 1665.8,1737.89 3084.6,1151.87 3842.1,572.55" /></g><g
         transform="scale(2.39036)"
         id="g238"><path
           id="path240"
           style="fill:none;stroke:#717577;stroke-width:20.91729927;stroke-linecap:butt;stroke-linejoin:miter;stroke-miterlimit:10;stroke-dasharray:none;stroke-opacity:0.1"
           d="M 1.24197,2448.79 C 818.007,2352.82 1852.08,2628.26 3065.09,3763.36 c 3203.21,2997.47 4962.32,0 4962.32,0 0,0 1939.12,-2599.39 4430.49,0 1665.8,1737.9 3084.6,1151.88 3842.1,572.55" /></g><g
         transform="scale(2.39036)"
         id="g242"><path
           id="path244"
           style="fill:none;stroke:#717577;stroke-width:20.91729927;stroke-linecap:butt;stroke-linejoin:miter;stroke-miterlimit:10;stroke-dasharray:none;stroke-opacity:0.1"
           d="M 1.24197,2257.15 C 818.007,2161.18 1852.08,2436.62 3065.09,3571.72 c 3203.21,2997.46 4962.32,0 4962.32,0 0,0 1939.12,-2599.399 4430.49,0 1665.8,1737.89 3084.6,1151.87 3842.1,572.55" /></g><g
         transform="scale(2.39036)"
         id="g246"><path
           id="path248"
           style="fill:none;stroke:#717577;stroke-width:20.91729927;stroke-linecap:butt;stroke-linejoin:miter;stroke-miterlimit:10;stroke-dasharray:none;stroke-opacity:0.1"
           d="M 1.24197,2065.5 C 818.007,1969.49 1852.08,2244.97 3065.09,3380.03 c 3203.21,2997.5 4962.32,0 4962.32,0 0,0 1939.12,-2599.354 4430.49,0 1665.8,1737.94 3084.6,1151.92 3842.1,572.59" /></g><g
         transform="scale(2.39036)"
         id="g250"><path
           id="path252"
           style="fill:none;stroke:#717577;stroke-width:20.91729927;stroke-linecap:butt;stroke-linejoin:miter;stroke-miterlimit:10;stroke-dasharray:none;stroke-opacity:0.1"
           d="M 1.24197,1873.86 C 818.007,1777.85 1852.08,2053.33 3065.09,3188.39 c 3203.21,2997.49 4962.32,0 4962.32,0 0,0 1939.12,-2599.358 4430.49,0 1665.8,1737.89 3084.6,1151.91 3842.1,572.55" /></g><g
         transform="scale(2.39036)"
         id="g254"><path
           id="path256"
           style="fill:none;stroke:#717577;stroke-width:20.91729927;stroke-linecap:butt;stroke-linejoin:miter;stroke-miterlimit:10;stroke-dasharray:none;stroke-opacity:0.1"
           d="M 1.24197,1682.21 C 818.007,1586.2 1852.08,1861.68 3065.09,2996.74 c 3203.21,2997.5 4962.32,0 4962.32,0 0,0 1939.12,-2599.353 4430.49,0 1665.8,1737.9 3084.6,1151.92 3842.1,572.55" /></g><g
         transform="scale(2.39036)"
         id="g258"><path
           id="path260"
           style="fill:none;stroke:#717577;stroke-width:20.91729927;stroke-linecap:butt;stroke-linejoin:miter;stroke-miterlimit:10;stroke-dasharray:none;stroke-opacity:0.1"
           d="M 1.24197,1490.53 C 818.007,1394.56 1852.08,1670 3065.09,2805.1 c 3203.21,2997.49 4962.32,0 4962.32,0 0,0 1939.12,-2599.357 4430.49,0 1665.8,1737.89 3084.6,1151.92 3842.1,572.55" /></g><g
         transform="scale(2.39036)"
         id="g262"><path
           id="path264"
           style="fill:none;stroke:#717577;stroke-width:20.91729927;stroke-linecap:butt;stroke-linejoin:miter;stroke-miterlimit:10;stroke-dasharray:none;stroke-opacity:0.1"
           d="M 1.24197,1298.88 C 818.007,1202.91 1852.08,1478.35 3065.09,2613.45 c 3203.21,2997.5 4962.32,0 4962.32,0 0,0 1939.12,-2599.352 4430.49,0 1665.8,1737.9 3084.6,1151.88 3842.1,572.55" /></g><g
         transform="scale(2.39036)"
         id="g266"><path
           id="path268"
           style="fill:none;stroke:#717577;stroke-width:20.91729927;stroke-linecap:butt;stroke-linejoin:miter;stroke-miterlimit:10;stroke-dasharray:none;stroke-opacity:0.1"
           d="M 1.24197,1107.24 C 818.007,1011.27 1852.08,1286.71 3065.09,2421.81 c 3203.21,2997.45 4962.32,0 4962.32,0 0,0 1939.12,-2599.356 4430.49,0 1665.8,1737.89 3084.6,1151.87 3842.1,572.55" /></g><g
         transform="scale(2.39036)"
         id="g270"><path
           id="path272"
           style="fill:none;stroke:#717577;stroke-width:20.91729927;stroke-linecap:butt;stroke-linejoin:miter;stroke-miterlimit:10;stroke-dasharray:none;stroke-opacity:0.1"
           d="M 1.24197,915.593 C 818.007,819.625 1852.08,1095.07 3065.09,2230.16 c 3203.21,2997.46 4962.32,0 4962.32,0 0,0 1939.12,-2599.393 4430.49,0 1665.8,1737.9 3084.6,1151.88 3842.1,572.55" /></g><g
         transform="scale(2.39036)"
         id="g274"><path
           id="path276"
           style="fill:none;stroke:#717577;stroke-width:20.91729927;stroke-linecap:butt;stroke-linejoin:miter;stroke-miterlimit:10;stroke-dasharray:none;stroke-opacity:0.1"
           d="M 1.24197,723.949 C 818.007,627.979 1852.08,903.42 3065.09,2038.52 c 3203.21,2997.45 4962.32,0 4962.32,0 0,0 1939.12,-2599.397 4430.49,0 1665.8,1737.9 3084.6,1151.88 3842.1,572.55" /></g><g
         transform="scale(2.39036)"
         id="g278"><path
           id="path280"
           style="fill:none;stroke:#717577;stroke-width:20.91729927;stroke-linecap:butt;stroke-linejoin:miter;stroke-miterlimit:10;stroke-dasharray:none;stroke-opacity:0.1"
           d="M 1.24197,532.304 C 818.007,436.293 1852.08,711.774 3065.09,1846.87 c 3203.21,2997.46 4962.32,0 4962.32,0 0,0 1939.12,-2599.392 4430.49,0 1665.8,1737.9 3084.6,1151.88 3842.1,572.55" /></g><g
         transform="scale(2.39036)"
         id="g282"><path
           id="path284"
           style="fill:none;stroke:#717577;stroke-width:20.91729927;stroke-linecap:butt;stroke-linejoin:miter;stroke-miterlimit:10;stroke-dasharray:none;stroke-opacity:0.1"
           d="M 1.24197,340.66 C 818.007,244.649 1852.08,520.129 3065.09,1655.19 c 3203.21,2997.49 4962.32,0 4962.32,0 0,0 1939.12,-2599.356 4430.49,0 1665.8,1737.94 3084.6,1151.92 3842.1,572.59" /></g><g
         transform="scale(2.39036)"
         id="g286"><path
           id="path288"
           style="fill:none;stroke:#717577;stroke-width:20.91729927;stroke-linecap:butt;stroke-linejoin:miter;stroke-miterlimit:10;stroke-dasharray:none;stroke-opacity:0.1"
           d="M 1.24197,149.015 C 818.007,53.0042 1852.08,328.486 3065.09,1463.54 c 3203.21,2997.5 4962.32,0 4962.32,0 0,0 1939.12,-2599.35 4430.49,0 1665.8,1737.9 3084.6,1151.92 3842.1,572.55" /></g><g
         transform="scale(2.39036)"
         id="g290"><path
           id="path292"
           style="fill:none;stroke:#717577;stroke-width:20.91729927;stroke-linecap:butt;stroke-linejoin:miter;stroke-miterlimit:10;stroke-dasharray:none;stroke-opacity:0.1"
           d="M 920.258,10.207 C 1551.04,152.822 2269.56,527.493 3065.07,1271.9 c 3203.19,2997.49 4962.29,0 4962.29,0 0,0 1939.21,-2599.36 4430.54,0 1665.8,1737.9 3084.6,1151.88 3842.1,572.55" /></g><g
         transform="scale(1.40582)"
         id="g294"><path
           id="path296"
           style="fill:none;stroke:#717577;stroke-width:35.56639862;stroke-linecap:butt;stroke-linejoin:miter;stroke-miterlimit:10;stroke-dasharray:none;stroke-opacity:0.1"
           d="M 2557.71,17.3553 C 3373.29,367.045 4260.07,946.349 5211.63,1836.79 c 5446.47,5096.73 8437.57,0 8437.57,0 0,0 1018.5,-1365.322 2650.8,-1819.4347" /></g><g
         transform="scale(2.39036)"
         id="g298"><path
           id="path300"
           style="fill:none;stroke:#717577;stroke-width:20.91729927;stroke-linecap:butt;stroke-linejoin:miter;stroke-miterlimit:10;stroke-dasharray:none;stroke-opacity:0.1"
           d="m 10819.7,10.207 c 504.2,139.184 1056.1,462.734 1638.2,1070.043 1665.8,1737.9 3084.6,1151.88 3842.1,572.55" /></g><g
         transform="scale(1.33424)"
         id="g302"><path
           id="path304"
           style="fill:none;stroke:#717577;stroke-width:37.47449875;stroke-linecap:butt;stroke-linejoin:miter;stroke-miterlimit:10;stroke-dasharray:none;stroke-opacity:0.1"
           d="M 3389.93,18.2864 C 4051.52,387.861 4752.9,901.037 5491.23,1591.99 c 5738.67,5370.1 8890.27,0 8890.27,0 0,0 717.2,-961.37 1918.5,-1573.7036" /></g><g
         transform="scale(2.39036)"
         id="g306"><path
           id="path308"
           style="fill:none;stroke:#717577;stroke-width:20.91729927;stroke-linecap:butt;stroke-linejoin:miter;stroke-miterlimit:10;stroke-dasharray:none;stroke-opacity:0.1"
           d="m 11314.1,10.207 c 363.4,181.688 746.6,463.989 1143.8,878.402 1665.8,1737.901 3084.6,1151.881 3842.1,572.551" /></g><g
         transform="scale(1.28674)"
         id="g310"><path
           id="path312"
           style="fill:none;stroke:#717577;stroke-width:38.85800171;stroke-linecap:butt;stroke-linejoin:miter;stroke-miterlimit:10;stroke-dasharray:none;stroke-opacity:0.1"
           d="M 4098.32,18.9615 C 4609.55,357.181 5141.76,778.013 5693.96,1294.75 c 5950.54,5568.35 9218.44,0 9218.44,0 0,0 508,-681.027 1387.6,-1275.7885" /></g><g
         transform="scale(2.39036)"
         id="g314"><path
           id="path316"
           style="fill:none;stroke:#717577;stroke-width:20.91729927;stroke-linecap:butt;stroke-linejoin:miter;stroke-miterlimit:10;stroke-dasharray:none;stroke-opacity:0.1"
           d="m 11646.5,10.207 c 262.3,171.396 533.5,396.719 811.4,686.759 1665.8,1737.894 3084.6,1151.874 3842.1,572.544" /></g><g
         transform="scale(1.24917)"
         id="g318"><path
           id="path320"
           style="fill:none;stroke:#717577;stroke-width:40.02669907;stroke-linecap:butt;stroke-linejoin:miter;stroke-miterlimit:10;stroke-dasharray:none;stroke-opacity:0.1"
           d="m 4741.35,19.5318 c 365.06,273.6232 739.76,587.9922 1123.86,947.4322 6129.49,5735.826 9495.69,0 9495.69,0 0,0 337.3,-452.139 939.1,-947.4322" /></g><g
         transform="scale(2.39036)"
         id="g322"><path
           id="path324"
           style="fill:none;stroke:#717577;stroke-width:20.91729927;stroke-linecap:butt;stroke-linejoin:miter;stroke-miterlimit:10;stroke-dasharray:none;stroke-opacity:0.1"
           d="m 11914.1,10.207 c 177.8,138.639 359.3,302.591 543.8,495.113 1665.8,1737.9 3084.6,1151.88 3842.1,572.55" /></g><g
         transform="scale(1.21769)"
         id="g326"><path
           id="path328"
           style="fill:none;stroke:#717577;stroke-width:41.06150055;stroke-linecap:butt;stroke-linejoin:miter;stroke-miterlimit:10;stroke-dasharray:none;stroke-opacity:0.1"
           d="m 5341.07,20.0367 c 221.95,183.5443 447.29,381.8713 675.76,595.6383 6287.97,5884.185 9741.17,0 9741.17,0 0,0 190.9,-255.813 542,-595.6383" /></g><g
         transform="scale(2.39036)"
         id="g330"><path
           id="path332"
           style="fill:none;stroke:#717577;stroke-width:20.91729927;stroke-linecap:butt;stroke-linejoin:miter;stroke-miterlimit:10;stroke-dasharray:none;stroke-opacity:0.1"
           d="m 12143.8,10.207 c 103.6,92.205 208.4,193.11 314.1,303.427 1665.8,1737.936 3084.6,1151.916 3842.1,572.591" /></g><g
         transform="scale(1.1908)"
         id="g334"><path
           id="path336"
           style="fill:none;stroke:#717577;stroke-width:41.98839951;stroke-linecap:butt;stroke-linejoin:miter;stroke-miterlimit:10;stroke-dasharray:none;stroke-opacity:0.1"
           d="m 5907.82,20.489 c 81.2,72.8926 162.81,147.632 244.85,224.386 6429.93,6017.025 9961.03,0 9961.03,0 0,0 64,-85.739 186.3,-224.386" /></g><g
         transform="scale(2.39036)"
         id="g338"><path
           id="path340"
           style="fill:none;stroke:#717577;stroke-width:20.91729927;stroke-linecap:butt;stroke-linejoin:miter;stroke-miterlimit:10;stroke-dasharray:none;stroke-opacity:0.1"
           d="m 12347.9,10.207 c 36.5,36.1445 73.2,73.379 110,111.782 1665.8,1737.901 3084.6,1151.921 3842.1,572.55" /></g><g
         transform="scale(1.16962)"
         id="g342"><path
           id="path344"
           style="fill:none;stroke:#717577;stroke-width:42.74890137;stroke-linecap:butt;stroke-linejoin:miter;stroke-miterlimit:10;stroke-dasharray:none;stroke-opacity:0.1"
           d="m 6441.02,20.8601 c 5789.48,5265.9899 9227.88,923.2069 9858.98,0" /></g><g
         transform="scale(2.39036)"
         id="g346"><path
           id="path348"
           style="fill:none;stroke:#717577;stroke-width:20.91729927;stroke-linecap:butt;stroke-linejoin:miter;stroke-miterlimit:10;stroke-dasharray:none;stroke-opacity:0.1"
           d="m 12535.9,10.207 c 1632,1639.713 3018.4,1062.983 3764.1,492.687" /></g><g
         transform="scale(1.14856)"
         id="g350"><path
           id="path352"
           style="fill:none;stroke:#717577;stroke-width:43.5326004;stroke-linecap:butt;stroke-linejoin:miter;stroke-miterlimit:10;stroke-dasharray:none;stroke-opacity:0.1"
           d="M 7014.34,21.2425 C 12025.4,4243.64 15222.1,1347.86 16300,21.2425" /></g><g
         transform="scale(2.39036)"
         id="g354"><path
           id="path356"
           style="fill:none;stroke:#717577;stroke-width:20.91729927;stroke-linecap:butt;stroke-linejoin:miter;stroke-miterlimit:10;stroke-dasharray:none;stroke-opacity:0.1"
           d="M 12736.5,10.207 C 14281.1,1410.71 15585,858.029 16300,311.25" /></g><g
         transform="scale(1.12385)"
         id="g358"><path
           id="path360"
           style="fill:none;stroke:#717577;stroke-width:44.4897995;stroke-linecap:butt;stroke-linejoin:miter;stroke-miterlimit:10;stroke-dasharray:none;stroke-opacity:0.1"
           d="M 7674.57,21.7096 C 12046,3380.78 14990.4,1399.91 16300,21.7096" /></g><g
         transform="scale(2.39036)"
         id="g362"><path
           id="path364"
           style="fill:none;stroke:#717577;stroke-width:20.91729927;stroke-linecap:butt;stroke-linejoin:miter;stroke-miterlimit:10;stroke-dasharray:none;stroke-opacity:0.1"
           d="M 12961.3,10.207 C 14407.2,1165.05 15620,639.652 16300,119.605" /></g><g
         transform="scale(1.09479)"
         id="g366"><path
           id="path368"
           style="fill:none;stroke:#717577;stroke-width:45.67079926;stroke-linecap:butt;stroke-linejoin:miter;stroke-miterlimit:10;stroke-dasharray:none;stroke-opacity:0.1"
           d="m 8454.2,22.2859 c 3752.8,2568.5241 6413.5,1271.7541 7845.8,0" /></g><g
         transform="scale(2.3739)"
         id="g370"><path
           id="path372"
           style="fill:none;stroke:#717577;stroke-width:21.06240082;stroke-linecap:butt;stroke-linejoin:miter;stroke-miterlimit:10;stroke-dasharray:none;stroke-opacity:0.1"
           d="m 13313,10.2778 c 1264.6,854.8402 2330.4,460.5942 2987,0" /></g><g
         transform="scale(1.05977)"
         id="g374"><path
           id="path376"
           style="fill:none;stroke:#717577;stroke-width:47.17990112;stroke-linecap:butt;stroke-linejoin:miter;stroke-miterlimit:10;stroke-dasharray:none;stroke-opacity:0.1"
           d="M 9413.86,23.0223 C 12518.2,1841.72 14840.4,1076.74 16300,23.0223" /></g><g
         transform="scale(2.32852)"
         id="g378"><path
           id="path380"
           style="fill:none;stroke:#717577;stroke-width:21.47290039;stroke-linecap:butt;stroke-linejoin:miter;stroke-miterlimit:10;stroke-dasharray:none;stroke-opacity:0.1"
           d="m 13899.3,10.4781 c 963.5,509.1649 1796.2,326.3869 2400.7,0" /></g><g
         transform="scale(1.01508)"
         id="g382"><path
           id="path384"
           style="fill:none;stroke:#717577;stroke-width:49.25719833;stroke-linecap:butt;stroke-linejoin:miter;stroke-miterlimit:10;stroke-dasharray:none;stroke-opacity:0.1"
           d="m 10688.9,24.036 c 2365,1093.514 4247.9,736.299 5611.1,0" /></g><g
         transform="scale(2.2635)"
         id="g386"><path
           id="path388"
           style="fill:none;stroke:#717577;stroke-width:22.0897007;stroke-linecap:butt;stroke-linejoin:miter;stroke-miterlimit:10;stroke-dasharray:none;stroke-opacity:0.1"
           d="m 14773.8,10.7791 c 571.4,185.1119 1087.5,143.4949 1526.2,0" /></g><path
         id="path390"
         style="fill:none;stroke:#717577;stroke-width:50;stroke-linecap:butt;stroke-linejoin:miter;stroke-miterlimit:10;stroke-dasharray:none;stroke-opacity:0.1"
         d="m 12082.4,24.3984 c 1294.1,361.2036 2420.3,289.9996 3371.4,0" /></g></g></svg>