{
  "accessors": [
    {
      "bufferView": 2,
      "componentType": 5126,
      "count": 7907,
      "max": [
        1.0,
        1.0,
        2.272710084915161
      ],
      "min": [
        -1.0,
        -1.0,
        -2.272710084915161
      ],
      "type": "VEC3"
    },
    {
      "bufferView": 2,
      "byteOffset": 94884,
      "componentType": 5126,
      "count": 7907,
      "max": [
        1.0,
        1.0,
        1.0
      ],
      "min": [
        -1.0,
        -1.0,
        -1.0
      ],
      "type": "VEC3"
    },
    {
      "bufferView": 1,
      "componentType": 5126,
      "count": 7907,
      "max": [
        0.9925900101661682,
        0.9932600259780884
      ],
      "min": [
        0.02085000090301037,
        0.014770000241696835
      ],
      "type": "VEC2"
    },
    {
      "bufferView": 0,
      "componentType": 5125,
      "count": 22734,
      "type": "SCALAR"
    },
    {
      "bufferView": 2,
      "byteOffset": 189768,
      "componentType": 5126,
      "count": 7226,
      "max": [
        1.0,
        1.0,
        2.272710084915161
      ],
      "min": [
        -1.0,
        -1.0,
        -2.272710084915161
      ],
      "type": "VEC3"
    },
    {
      "bufferView": 2,
      "byteOffset": 276480,
      "componentType": 5126,
      "count": 7226,
      "max": [
        1.0,
        1.0,
        1.0
      ],
      "min": [
        -1.0,
        -1.0,
        -1.0
      ],
      "type": "VEC3"
    },
    {
      "bufferView": 1,
      "byteOffset": 63256,
      "componentType": 5126,
      "count": 7226,
      "max": [
        0.9891600012779236,
        0.9868199825286865
      ],
      "min": [
        0.013690000399947166,
        0.013269999995827675
      ],
      "type": "VEC2"
    },
    {
      "bufferView": 0,
      "byteOffset": 90936,
      "componentType": 5125,
      "count": 21087,
      "type": "SCALAR"
    },
    {
      "bufferView": 2,
      "byteOffset": 363192,
      "componentType": 5126,
      "count": 956,
      "max": [
        1.0,
        1.0,
        1.0
      ],
      "min": [
        -1.0,
        -1.0,
        -3.545419931411743
      ],
      "type": "VEC3"
    },
    {
      "bufferView": 2,
      "byteOffset": 374664,
      "componentType": 5126,
      "count": 956,
      "max": [
        1.0,
        1.0,
        1.0
      ],
      "min": [
        -1.0,
        -1.0,
        -1.0
      ],
      "type": "VEC3"
    },
    {
      "bufferView": 1,
      "byteOffset": 121064,
      "componentType": 5126,
      "count": 956,
      "max": [
        0.9833999872207642,
        0.9820600152015686
      ],
      "min": [
        0.0,
        0.0
      ],
      "type": "VEC2"
    },
    {
      "bufferView": 0,
      "byteOffset": 175284,
      "componentType": 5125,
      "count": 1548,
      "type": "SCALAR"
    },
    {
      "bufferView": 2,
      "byteOffset": 386136,
      "componentType": 5126,
      "count": 227,
      "max": [
        1.0,
        1.0,
        2.272710084915161
      ],
      "min": [
        -1.0,
        -1.0,
        -2.272710084915161
      ],
      "type": "VEC3"
    },
    {
      "bufferView": 2,
      "byteOffset": 388860,
      "componentType": 5126,
      "count": 227,
      "max": [
        1.0,
        1.0,
        1.0
      ],
      "min": [
        -1.0,
        -1.0,
        -1.0
      ],
      "type": "VEC3"
    },
    {
      "bufferView": 1,
      "byteOffset": 128712,
      "componentType": 5126,
      "count": 227,
      "max": [
        0.9764500260353088,
        0.9953200221061707
      ],
      "min": [
        0.009220000356435776,
        0.010230000130832195
      ],
      "type": "VEC2"
    },
    {
      "bufferView": 0,
      "byteOffset": 181476,
      "componentType": 5125,
      "count": 480,
      "type": "SCALAR"
    }
  ],
  "asset": {
    "extras": {
      "author": "PeToDes (https://sketchfab.com/PeToDes)",
      "license": "CC-BY-4.0 (http://creativecommons.org/licenses/by/4.0/)",
      "source": "https://sketchfab.com/3d-models/low-poly-modular-roads-free-asset-pack-d202f189bd5e46bb984eaa25398e200f",
      "title": "Low Poly Modular Roads - Free Asset Pack"
    },
    "generator": "Sketchfab-12.68.0",
    "version": "2.0"
  },
  "bufferViews": [
    {
      "buffer": 0,
      "byteLength": 183396,
      "name": "floatBufferViews",
      "target": 34963
    },
    {
      "buffer": 0,
      "byteLength": 130528,
      "byteOffset": 183396,
      "byteStride": 8,
      "name": "floatBufferViews",
      "target": 34962
    },
    {
      "buffer": 0,
      "byteLength": 391584,
      "byteOffset": 313924,
      "byteStride": 12,
      "name": "floatBufferViews",
      "target": 34962
    }
  ],
  "buffers": [
    {
      "byteLength": 705508,
      "uri": "road.bin"
    }
  ],
  "images": [
    {
      "uri": "textures/Texture_baseColor.png"
    }
  ],
  "materials": [
    {
      "doubleSided": true,
      "name": "Texture",
      "pbrMetallicRoughness": {
        "baseColorTexture": {
          "index": 0
        },
        "metallicFactor": 0.0,
        "roughnessFactor": 0.6
      }
    }
  ],
  "meshes": [
    {
      "name": "Road 4_0",
      "primitives": [
        {
          "attributes": {
            "NORMAL": 1,
            "POSITION": 0,
            "TEXCOORD_0": 2
          },
          "indices": 3,
          "material": 0,
          "mode": 4
        }
      ]
    },
    {
      "name": "Road 3_0",
      "primitives": [
        {
          "attributes": {
            "NORMAL": 5,
            "POSITION": 4,
            "TEXCOORD_0": 6
          },
          "indices": 7,
          "material": 0,
          "mode": 4
        }
      ]
    },
    {
      "name": "Road 2_0",
      "primitives": [
        {
          "attributes": {
            "NORMAL": 9,
            "POSITION": 8,
            "TEXCOORD_0": 10
          },
          "indices": 11,
          "material": 0,
          "mode": 4
        }
      ]
    },
    {
      "name": "Road 1_0",
      "primitives": [
        {
          "attributes": {
            "NORMAL": 13,
            "POSITION": 12,
            "TEXCOORD_0": 14
          },
          "indices": 15,
          "material": 0,
          "mode": 4
        }
      ]
    }
  ],
  "nodes": [
    {
      "children": [
        1
      ],
      "matrix": [
        0.15230882167816162,
        0.0,
        0.0,
        0.0,
        0.0,
        3.381935213612444e-17,
        -0.15230882167816162,
        0.0,
        0.0,
        0.15230882167816162,
        3.381935213612444e-17,
        0.0,
        0.0,
        0.0,
        0.0,
        1.0
      ],
      "name": "Sketchfab_model"
    },
    {
      "children": [
        2,
        4,
        6,
        8
      ],
      "name": "Root"
    },
    {
      "children": [
        3
      ],
      "matrix": [
        0.0,
        1.3313199999999998,
        0.0,
        0.0,
        -1.3313199999999998,
        0.0,
        0.0,
        0.0,
        0.0,
        0.0,
        0.07072000000000002,
        0.0,
        -1.69173,
        14.2845,
        -1.19532,
        1.0
      ],
      "name": "Road 4"
    },
    {
      "mesh": 0,
      "name": "Road 4_0"
    },
    {
      "children": [
        5
      ],
      "matrix": [
        1.3313199999999998,
        0.0,
        0.0,
        0.0,
        0.0,
        1.32585,
        0.0,
        0.0,
        0.0,
        0.0,
        0.07072000000000002,
        0.0,
        -1.69173,
        17.145709999999998,
        -1.19532,
        1.0
      ],
      "name": "Road 3"
    },
    {
      "mesh": 1,
      "name": "Road 3_0"
    },
    {
      "children": [
        7
      ],
      "matrix": [
        1.3313199999999998,
        0.0,
        0.0,
        0.0,
        0.0,
        1.32585,
        0.0,
        0.0,
        0.0,
        0.0,
        0.07072000000000002,
        0.0,
        1.1915,
        17.125739999999997,
        -1.1067500000000001,
        1.0
      ],
      "name": "Road 2"
    },
    {
      "mesh": 2,
      "name": "Road 2_0"
    },
    {
      "children": [
        9
      ],
      "matrix": [
        -1.3313199999999998,
        0.0,
        0.0,
        0.0,
        -0.0,
        -1.3313199999999998,
        0.0,
        0.0,
        0.0,
        0.0,
        0.07072000000000002,
        0.0,
        1.1915,
        14.271059999999999,
        -1.19532,
        1.0
      ],
      "name": "Road 1"
    },
    {
      "mesh": 3,
      "name": "Road 1_0"
    }
  ],
  "samplers": [
    {
      "magFilter": 9729,
      "minFilter": 9987,
      "wrapS": 10497,
      "wrapT": 10497
    }
  ],
  "scene": 0,
  "scenes": [
    {
      "name": "Sketchfab_Scene",
      "nodes": [
        0
      ]
    }
  ],
  "textures": [
    {
      "sampler": 0,
      "source": 0
    }
  ]
}
