<?xml version="1.0" encoding="utf-8"?>
<!-- Generator: Adobe Illustrator 27.5.0, SVG Export Plug-In . SVG Version: 6.00 Build 0)  -->
<svg version="1.1" id="BACKGROUND" xmlns="http://www.w3.org/2000/svg" xmlns:xlink="http://www.w3.org/1999/xlink" x="0px" y="0px"
	 viewBox="0 0 750 500" style="enable-background:new 0 0 750 500;" xml:space="preserve">
<g>
	<rect style="fill-rule:evenodd;clip-rule:evenodd;fill:#00213E;" width="750" height="500"/>
	<g>
		<defs>
			<rect id="SVGID_1_" width="750" height="500"/>
		</defs>
		<clipPath id="SVGID_00000138566192256352044660000008656556551696732056_">
			<use xlink:href="#SVGID_1_"  style="overflow:visible;"/>
		</clipPath>
		<g style="clip-path:url(#SVGID_00000138566192256352044660000008656556551696732056_);">
			<g>
				<path style="fill-rule:evenodd;clip-rule:evenodd;fill:none;stroke:#84FEA3;stroke-width:2;stroke-miterlimit:10;" d="
					M683.562,250.551c13.761,32.338-25.581,44.493-41.524,53.502c-14.569,8.232-29.128,37.443-41.524,35.934
					c-31.701-3.859-1.143-43.371-23.157-66.759c-35.934-38.175,4.992-70.588,31.143-70.588
					C634.651,202.64,667.591,213.02,683.562,250.551z"/>
				<path style="fill-rule:evenodd;clip-rule:evenodd;fill:none;stroke:#84EBFE;stroke-width:0.8125;stroke-miterlimit:10;" d="
					M667.142,252.229c5.463,12.113,1.841,20.967-5.643,27.728c-7.595,6.852-19.015,11.156-25.499,14.64
					c-11.233,6.035-22.293,28.245-31.745,26.671c-23.596-3.928-1.129-33.07-17.678-50.911c-26.889-28.989,3.84-53.514,23.609-53.715
					C629.965,216.429,654.524,224.25,667.142,252.229z"/>
				<path style="fill-rule:evenodd;clip-rule:evenodd;fill:none;stroke:#84EBFE;stroke-width:0.625;stroke-miterlimit:10;" d="
					M650.723,253.907c4.106,8.192,3.103,14.805-1.887,20.138c-5.064,5.393-13.927,8.667-18.875,11.096
					c-7.875,3.865-15.287,17.34-21.967,17.409c-15.311,0.157-1.115-22.766-12.198-35.063c-17.845-19.798,2.688-36.439,16.076-36.841
					C625.279,230.218,641.491,235.488,650.723,253.907z"/>
				<path style="fill-rule:evenodd;clip-rule:evenodd;fill:none;stroke:#84EBFE;stroke-width:0.4375;stroke-miterlimit:10;" d="
					M634.303,255.585c2.79,4.322,4.365,8.644,1.87,12.548c-2.532,3.935-8.813,6.189-12.251,7.552
					c-4.461,1.769-8.435,7.67-12.189,8.146c-8.763,1.111-1.1-12.456-6.719-19.215c-8.806-10.594,1.537-19.347,8.542-19.968
					C620.595,244.025,628.594,246.742,634.303,255.585z"/>
				<path style="fill-rule:evenodd;clip-rule:evenodd;fill:none;stroke:#87D2E5;stroke-width:0.5;stroke-miterlimit:10;" d="
					M623.511,262.221c0,2.476-3.611,4.008-5.627,4.008c-2.016,0-3.65-2.007-3.65-4.483c0-2.476,1.634-4.483,3.65-4.483
					C619.9,257.263,623.511,259.745,623.511,262.221z"/>
			</g>
			<g>
				<path style="fill-rule:evenodd;clip-rule:evenodd;fill:none;stroke:#87D2E5;stroke-miterlimit:10;" d="M686.371,380.12
					c-7.483,13.569-19.932,23.686-34.724,28.302c-22.19,6.925-54.521,12.038-82.223-3.132
					c-47.597-26.065-30.181-42.597-60.779-75.462c-30.598-32.865-37.815-49.691-21.95-94.776
					c15.866-45.084,11.333-20.152,33.998-70.016c22.665-49.864,46.546-52.864,71.605-43.676
					c29.963,10.986,103.988,110.468,167.919,34.491c32.194-38.259,102.724,31.357,84.592,79.201
					c-18.132,47.844,8.347,107.594-32.451,100.363c-40.798-7.231-54.173-0.726-85.809,7.207
					C707.733,347.341,694.227,365.874,686.371,380.12z"/>
				<path style="fill-rule:evenodd;clip-rule:evenodd;fill:none;stroke:#87D2E5;stroke-width:0.8594;stroke-miterlimit:10;" d="
					M540.843,170.821c22.165-35.851,40-38.879,61.211-31.114c10.223,3.74,23.358,17.854,39.515,30.403
					c26.481,20.568,69.837,33.648,103.36,9.137c42-30.71,77.491,25.793,64.139,65.991c-5.802,17.467,0.264,24.275-1.265,39.998
					c-2.008,20.655-9.479,38.375-29.195,40.705c-33.621,3.973-45.099,6.081-67.18,12.996c-1.794,0.569-3.65,1.151-5.582,1.741
					c-15.368,4.678-26.772,19.826-33.977,31.634c-6.744,11.051-17.218,19.444-29.627,23.418c-18.322,5.847-44.28,9.57-66.653-2.38
					c-37.546-20.212-26.18-33.893-50.45-59.97c-12.41-13.348-20.043-25.361-24.387-37.615c-5.607-15.794-5.6-32.778,1.286-56.286
					c7.472-25.509,9.888-30.55,16.796-40.682C523.547,191.884,531.985,185.148,540.843,170.821z"/>
				<path style="fill-rule:evenodd;clip-rule:evenodd;fill:none;stroke:#87D2E5;stroke-width:0.7188;stroke-miterlimit:10;" d="
					M560.992,176.606c20.204-21.883,33.454-24.894,50.818-18.552c8.864,3.234,19.59,13.566,32.438,22.679
					c22.145,15.707,55.725,30.799,86.632,14.991c23.521-12.03,85.073-28.995,42.447,59.7c-5.441,11.322-5.447,24.162-7.01,36.374
					c-1.683,13.152-4.771,21.666-17.387,27.621c-15.961,7.534-33.88,8.606-50.451,14.253c-16.468,5.612-31.118,16.587-41.11,30.834
					c-5.989,8.538-14.503,15.202-24.53,18.534c-14.454,4.769-34.074,7.169-51.083-1.629c-9.269-4.794-17.47-10.808-23.209-19.632
					c-13.427-20.648-31.137-38.963-39.009-62.66c-5.38-16.162-6.921-33.655-2.156-55.212c4.984-22.55,7.918-32.055,15.968-43.274
					C539.451,192.128,551.215,187.195,560.992,176.606z"/>
				<path style="fill-rule:evenodd;clip-rule:evenodd;fill:none;stroke:#87D2E5;stroke-width:0.5781;stroke-miterlimit:10;" d="
					M572.97,183.043c13.9-6.882,29.861-9.458,45.265-5.588c21.353,5.366,38.32,21.973,59.331,28.55
					c14.603,4.571,31.295,4.407,43.391,13.778c9.766,7.566,14.519,20.069,16.101,32.321c1.766,13.677,0.108,27.783-4.78,40.678
					c-4.188,11.048-11.208,21.634-21.778,26.913c-9.149,4.569-19.889,4.688-29.471,8.263c-20.039,7.476-31.826,28.521-50.477,38.99
					c-53.934,30.272-93.15-50.303-97.529-91.702c-2.666-25.199,0.235-57.354,18.457-76.41
					C557.623,192.414,564.954,187.012,572.97,183.043z"/>
				<path style="fill-rule:evenodd;clip-rule:evenodd;fill:none;stroke:#87D2E5;stroke-width:0.4375;stroke-miterlimit:10;" d="
					M646.161,333.711c-6.415,5.204-12.178,11.193-18.77,16.171c-6.689,5.05-14.517,9.106-22.893,9.402
					c-8.189,0.29-16.212-3.093-22.66-8.15c-15.139-11.872-21.559-31.518-26.243-50.178c-3.592-14.308-6.645-28.84-7.215-43.58
					c-0.965-24.971,5.72-56.011,31.808-65.983c29.395-11.236,64.941,5.9,89.683,21.101c10.918,6.708,21.465,14.446,29.167,24.687
					c7.702,10.241,12.325,23.321,10.264,35.968c-2.407,14.767-13.359,26.76-25.452,35.571c-12.093,8.811-25.753,15.38-37.407,24.765
					C646.348,333.559,646.254,333.634,646.161,333.711z"/>
			</g>
			<g>
				<path style="fill-rule:evenodd;clip-rule:evenodd;fill:none;stroke:#87D2E5;stroke-miterlimit:10;" d="M-36.332,368.575
					c0,0,40.219-70.351,117.002-42.319c76.782,28.032,19.5,67.032,110.908,69.47c91.408,2.438-4.875,98.72,125.533,146.252H-26.582
					L-36.332,368.575z"/>
				<path style="fill-rule:evenodd;clip-rule:evenodd;fill:none;stroke:#86DDD5;stroke-width:0.8125;stroke-miterlimit:10;" d="
					M176.444,410.761c77.71,10.022-8.722,86.82,107.071,127.053H-21.66l-8.657-146.776c0,0,33.596-66.941,101.773-43.214
					C139.633,371.553,100.218,400.931,176.444,410.761z"/>
				<path style="fill-rule:evenodd;clip-rule:evenodd;fill:none;stroke:#86E8C4;stroke-width:0.625;stroke-miterlimit:10;" d="
					M161.31,425.797c64.114,17.846-12.569,74.92,88.61,107.854H-16.739l-7.565-120.148c0,0,26.972-63.531,86.544-44.108
					C121.813,388.818,100.355,408.831,161.31,425.797z"/>
				<path style="fill-rule:evenodd;clip-rule:evenodd;fill:none;stroke:#85F3B3;stroke-width:0.4375;stroke-miterlimit:10;" d="
					M146.176,440.833c50.483,26.119-16.416,63.02,70.148,88.655H-11.818l-6.472-93.52c0,0,20.348-60.121,71.315-45.003
					C103.993,406.083,100.453,417.177,146.176,440.833z"/>
				<path style="fill-rule:evenodd;clip-rule:evenodd;fill:none;stroke:#84FEA3;stroke-width:0.25;stroke-miterlimit:10;" d="
					M-12.276,458.432c0,0,13.724-56.711,56.087-45.897c42.363,10.814,56.278,13.507,87.231,43.334
					c36.321,35-20.263,51.12,51.686,69.456H-6.896L-12.276,458.432z"/>
			</g>
			<g>
				<path style="fill-rule:evenodd;clip-rule:evenodd;fill:none;stroke:#87D2E5;stroke-width:0.25;stroke-miterlimit:10;" d="
					M47.951,494.917c-0.062,0.211-0.15,0.408-0.269,0.589c-1.639,2.488-5.911,1.374-8.255,0.907
					c-3.721-0.741-7.328-1.013-11.116-1.348c-2.226-0.197-5.253,0.238-7.181-1.145c-2.795-2.005-1.552-5.428,1.129-6.83
					c1.77-0.925,3.861-1.308,5.807-1.687C33.541,484.336,50.896,484.91,47.951,494.917z"/>
				<path style="fill-rule:evenodd;clip-rule:evenodd;fill:none;stroke:#87D2E5;stroke-width:0.4375;stroke-miterlimit:10;" d="
					M39.039,473.804c7.627,2.789,19.216,7.2,22.061,15.674c2.6,7.744-1.56,11.51-2.43,11.373
					c-1.805-0.283-34.285-0.538-36.453-0.538c-7.295,0-9.482-13.621-8.914-18.008c1.279-9.878,16.591-11.352,24.037-9.073
					C37.911,473.407,38.478,473.599,39.039,473.804z"/>
				<path style="fill-rule:evenodd;clip-rule:evenodd;fill:none;stroke:#87D2E5;stroke-width:0.625;stroke-miterlimit:10;" d="
					M36.361,457.052c9.056,0.228,18.437,3.022,25.117,6.568c7.308,3.88,13.958,9.44,18.384,16.49
					c0.522,0.832,1.009,1.686,1.446,2.565c7.547,15.162-1.04,23.375-1.62,23.284c-1.203-0.189-63.405-0.359-64.88-0.359
					c-6.665-0.001-6.931-14.377-7.178-18.742c-0.325-5.753,0.519-11.978,3.127-17.163C15.619,460.032,25.768,456.786,36.361,457.052
					z"/>
				<path style="fill-rule:evenodd;clip-rule:evenodd;fill:none;stroke:#87D2E5;stroke-width:0.8125;stroke-miterlimit:10;" d="
					M30.89,443.078c22.511-3.176,58.325,12.141,70.632,34.592c12.362,22.551-0.52,35.241-0.81,35.195
					c-0.602-0.094-92.585-0.179-93.308-0.179c-1.749,0-3.823-23.149-4.848-36.498c-0.541-7.037,1.016-14.125,4.75-20.113
					c1.567-2.513,3.669-5.088,6.608-7.3C19.047,444.912,24.099,444.036,30.89,443.078z"/>
				<path style="fill-rule:evenodd;clip-rule:evenodd;fill:none;stroke:#87D2E5;stroke-miterlimit:10;" d="M-3.776,460.91
					c0-7.198,1.605-27.093,29.22-33.283c29.724-6.662,78.922,15.374,96.292,45.705c17.145,29.939,0,47.106,0,47.106H0L-3.776,460.91
					z"/>
			</g>
			<g>
				<path style="fill-rule:evenodd;clip-rule:evenodd;fill:none;stroke:#87D2E5;stroke-width:0.4375;stroke-miterlimit:10;" d="
					M10.982,14.138c0,0-4.564,59.252,37.975,49.383c71.728-16.641,65.811,7.36,95.799-36.4
					c24.323-35.494,22.25,30.338,57.388,28.359c35.138-1.979,35.579-11.956,54.577-11.42c38.161,1.077,44.533-11.342,44.54-31.307
					c0.031-83.56-163.344-180.499-239.548-108.776C13.945-51.065,10.982,14.138,10.982,14.138z"/>
				<path style="fill-rule:evenodd;clip-rule:evenodd;fill:none;stroke:#87D2E5;stroke-width:0.5313;stroke-miterlimit:10;" d="
					M198.909,80.979c16.411,0.779,31.705-3.356,38.675-6.36c10.726-4.622,14.137-12.896,28.59-13.432
					c34.956-1.296,46.926-7.763,49.006-24.026c0.482-3.766,0.455-7.767,0.188-11.987c-0.962-14.61-4.471-29.498-7.075-44.331
					c-1.744-9.933-5.207-22.677-14.966-32.846c-53.679-55.934-177.759-96.158-239.382-39.701C4.106-46.044,2.388,2.625,0.023,19.164
					c-0.728,5.089-1.188,9.187-1.507,10.767c-1.093,5.41-6.055,65.595,41.653,50.661c75.291-23.568,77.226-2.674,104.781-34.503
					C166.822,20.825,167.016,79.465,198.909,80.979z"/>
				<path style="fill-rule:evenodd;clip-rule:evenodd;fill:none;stroke:#87D2E5;stroke-width:0.625;stroke-miterlimit:10;" d="
					M195.672,106.478c18.171,0.766,40.035-3.691,47.529-7.378c12.489-6.145,14.546-19.318,32.424-20.786
					c39.058-3.207,52.953-8.446,54.358-27.358c0.319-4.299,0.026-8.75-0.511-13.362c-1.929-16.122-5.394-31.716-3.087-49.086
					c1.282-9.657,1.853-26.083-9.415-37.36c-55.876-55.92-203.016-99.494-270.796-38.533
					C-17.049-30.521-10.082,20.677-11.974,33.908c-0.582,4.072-1.338,8.656-1.977,11.816c-2.186,10.82-7.523,72.131,45.331,51.939
					c78.909-30.146,88.785-13.062,113.764-32.605C164.754,49.715,167.008,105.271,195.672,106.478z"/>
				<path style="fill-rule:evenodd;clip-rule:evenodd;fill:none;stroke:#87D2E5;stroke-width:0.7188;stroke-miterlimit:10;" d="
					M192.436,131.978c19.927,1.745,48.353-4.048,56.383-8.396c14.233-7.706,14.96-25.679,36.258-28.139
					c43.171-4.987,58.995-9.128,59.71-30.689c0.16-4.831-0.403-9.733-1.209-14.736c-2.895-17.636-7.161-33.943,0.901-53.842
					c3.799-9.379,8.934-29.507-3.865-41.874c-57.965-56.01-228.333-102.896-302.21-37.365
					C-38.26-15.061-22.552,38.729-23.972,48.652c-0.437,3.054-1.489,8.126-2.447,12.866c-3.28,16.229-8.939,78.817,49.009,53.217
					c82.605-36.493,101.143-23.763,122.746-30.708C163.432,78.211,167.048,129.754,192.436,131.978z"/>
				<path style="fill-rule:evenodd;clip-rule:evenodd;fill:none;stroke:#87D2E5;stroke-width:0.8125;stroke-miterlimit:10;" d="
					M189.2,157.477c21.668,2.917,56.663-4.42,65.238-9.415c15.959-9.296,15.381-31.997,40.092-35.493
					c47.299-6.693,65.086-9.809,65.061-34.021c0.012-5.363-0.832-10.716-1.908-16.111c-3.862-19.148-9.505-36.658,4.889-58.598
					c6.113-9.318,16.032-32.951,1.686-46.388c-59.98-56.18-253.682-106.336-333.623-36.197
					C-59.514,0.351-35.023,56.78-35.968,63.396c-0.291,2.036-1.639,7.595-2.917,13.915c-4.373,21.639-10.296,85.618,52.687,54.495
					c86.384-42.687,114.965-33.096,131.729-28.81C163.41,107.567,167.07,154.498,189.2,157.477z"/>
				<path style="fill-rule:evenodd;clip-rule:evenodd;fill:none;stroke:#87D2E5;stroke-width:0.9063;stroke-miterlimit:10;" d="
					M185.964,182.977c23.353,4.37,64.965-4.8,74.092-10.433c17.67-10.905,15.811-38.282,43.927-42.847
					c51.441-8.352,71.128-10.493,70.413-37.352c-0.147-5.896-1.261-11.7-2.606-17.486c-4.828-20.661-12.042-39.854,8.876-63.354
					c8.419-9.458,23.146-36.414,7.237-50.902C325.96-95.808,108.77-149.291,22.866-74.426C-80.898,15.61-47.493,74.832-47.966,78.14
					c-0.146,1.018-1.79,7.064-3.386,14.964c-5.466,27.049-11.592,92.506,56.364,55.773c90.238-48.777,127.628-40.63,140.711-26.912
					C162.026,139.057,167.044,179.437,185.964,182.977z"/>
				<path style="fill-rule:evenodd;clip-rule:evenodd;fill:none;stroke:#87D2E5;stroke-miterlimit:10;" d="M-59.963,92.884
					c0,0-37.972,127.863,56.186,73.064c94.158-54.798,138.82-49.025,149.694-25.015c13.132,28.996,21.017,63.581,36.81,67.543
					c24.908,6.248,73.262-5.186,82.946-11.451c19.368-12.53,16.248-44.543,47.761-50.201c55.595-9.981,77.17-11.177,75.765-40.684
					c-1.405-29.507-25.508-55.327,9.56-86.97c10.778-9.725,30.275-39.894,12.788-55.416
					C347.677-92.937,107.114-149.527,15.096-70.106C-102.115,31.06-59.963,92.884-59.963,92.884z"/>
			</g>
			<g>
				<path style="fill-rule:evenodd;clip-rule:evenodd;fill:none;stroke:#84FEA3;stroke-width:2;stroke-miterlimit:10;" d="
					M236.994,23.592c-7.01,2.42-23.55,9.109-40.511,0c-19.757-10.611-23.418-32.406-43.416-28.104
					C132.089,0,140.281,33.511,96.702,35.67c-28.808,1.427-61.996,2.591-69.975-25.029c-6.736-23.316-1.453-37.149,32.575-53.749
					C93.33-59.707,189.43-78.198,192.052-76.45c2.623,1.748,89.884,68.35,78.637,86.819C263.663,21.909,254.356,17.6,236.994,23.592
					z"/>
			</g>
			<g>
				<path style="fill-rule:evenodd;clip-rule:evenodd;fill:none;stroke:#87D2E5;stroke-width:0.25;stroke-miterlimit:10;" d="
					M323.041,333.967c0.112,1.337-0.053,2.667-0.699,3.636c-0.543,0.815-1.66,1.337-2.53,0.889
					c-0.618-0.318-0.939-1.011-1.151-1.673c-0.477-1.493-0.626-3.09-0.433-4.646c0.145-1.171,1.079-3.672,2.743-3.129
					c0.491,0.16,0.801,0.639,1.03,1.102C322.497,331.149,322.923,332.561,323.041,333.967z"/>
				<path style="fill-rule:evenodd;clip-rule:evenodd;fill:none;stroke:#87D2E5;stroke-width:0.375;stroke-miterlimit:10;" d="
					M330.011,326.922c2.245,8.399,3.675,20.972-3.43,21.599c-2.363,0.209-3.896-1.547-5.597-2.871
					c-4.014-3.125-9.397-2.288-13.177-5.88c-5.935-5.639-0.782-13.316,4.36-17.383c4.301-3.402,11.904-9.457,15.672-1.758
					C328.474,321.927,329.285,324.207,330.011,326.922z"/>
				<path style="fill-rule:evenodd;clip-rule:evenodd;fill:none;stroke:#87D2E5;stroke-width:0.5;stroke-miterlimit:10;" d="
					M339.343,324.78c0.296,3.925,0.176,7.77-0.067,10.939c-0.585,7.632,3.071,24.074-8.892,23.874
					c-4.271-0.072-6.465-3.585-9.227-6.244c-7.095-6.831-17.222-4.285-24.639-10.475c-5.077-4.237-6.092-11.801-3.33-17.619
					c2.477-5.217,7.932-9.244,12.482-12.501c6.156-4.407,16.291-12.344,24.239-7.902
					C336.418,308.492,338.741,316.801,339.343,324.78z"/>
				<path style="fill-rule:evenodd;clip-rule:evenodd;fill:none;stroke:#87D2E5;stroke-width:0.625;stroke-miterlimit:10;" d="
					M348.31,322.656c0.613,4.037,0.742,7.039,0.441,9.501c-0.752,6.15-3.413,8.827-2.715,18.739
					c0.149,2.062,0.323,3.979,0.457,5.744c0.739,9.733,0.328,14.704-12.365,14.001c-10.886-0.611-11.817-15.57-26.672-17.504
					c-0.545-0.071-1.108-0.127-1.689-0.164c-8.546-0.523-15.67-3.11-20.598-7.018c-6.636-5.263-8.65-14.741-5.815-22.549
					c3.284-9.046,12.185-15.079,19.762-20.31c12.547-8.663,35.577-24.076,43.897,0.709
					C344.435,308.036,346.732,312.263,348.31,322.656z"/>
				<path style="fill-rule:evenodd;clip-rule:evenodd;fill:none;stroke:#87D2E5;stroke-width:0.75;stroke-miterlimit:10;" d="
					M357.217,320.553c0.703,5.32,0.707,9.172,0.245,12.3c-1.171,7.934-4.796,11.162-3.927,24.014c0.182,2.649,0.4,5.103,0.57,7.356
					c0.948,12.532,0.455,18.716-16.254,17.457c-14.334-1.086-15.198-21.248-34.719-23.635c-0.712-0.089-1.448-0.154-2.21-0.195
					c-11.216-0.583-20.633-3.8-27.122-8.824c-6.508-5.039-9.511-13.439-8.98-21.508c0.614-9.328,6.076-16.415,12.753-22.524
					c4.655-4.259,9.742-8.039,14.967-11.564c16.649-11.33,47.418-31.36,58.01,1.942
					C352.364,301.072,355.389,306.724,357.217,320.553z"/>
				<path style="fill-rule:evenodd;clip-rule:evenodd;fill:none;stroke:#87D2E5;stroke-width:0.875;stroke-miterlimit:10;" d="
					M366.112,318.437c0.794,6.604,0.671,11.303,0.048,15.1c-1.593,9.716-6.179,13.496-5.14,29.289
					c0.214,3.236,0.477,6.228,0.684,8.968c1.156,15.33,0.582,22.728-20.142,20.912c-17.781-1.561-18.582-26.895-42.766-29.766
					c-0.879-0.105-1.788-0.181-2.73-0.225c-13.887-0.643-25.585-4.504-33.647-10.63c-14.752-11.209-14.279-32.723-2.846-46.21
					c7.421-8.754,16.896-15.781,26.38-22.124c20.785-13.948,59.258-38.64,72.123,3.176
					C360.281,294.096,364.037,301.174,366.112,318.437z"/>
				<path style="fill-rule:evenodd;clip-rule:evenodd;fill:none;stroke:#87D2E5;stroke-miterlimit:10;" d="M238.708,316.36
					c3.845-11.3,12.829-20.871,22.133-28.632c5.892-4.915,12.128-9.413,18.515-13.659c24.921-16.567,71.098-45.919,86.236,4.409
					c2.598,8.639,7.086,17.144,9.408,37.839c3.163,28.203-8.179,26.455-6.501,52.463c1.633,25.295,5.911,37.743-23.234,34.947
					c-21.999-2.11-21.993-34.79-54.064-36.152c-20.918-0.888-49.467-9.346-53.86-33.277
					C236.168,327.907,236.815,321.924,238.708,316.36z"/>
			</g>
			<g>
				<path style="fill:none;stroke:#84EBFE;stroke-width:0.25;stroke-miterlimit:10;" d="M325.985,434.274
					c-25.676-37.208-67.445-51.075-105.758-56.306c-21.426-1.782-42.924-13.971-52.692-34.03
					c-12.024-24.692-2.451-50.431,16.575-67.566c10.053-9.055,21.442-15.189,34.416-18.839
					c28.204-7.935,59.785-15.149,83.329-33.783c10.921-8.644,10.609-19.926,17.38-30.993c6.326-10.337,17.679-15.265,28.578-19.256
					c13.769-5.043,25.347-5.166,39.829-2.801c11.674,1.906,23.324-4.42,29.269-14.624c16.997-29.173-4.377-63.976-8.476-93.439
					c-1.478-10.624-0.774-22.939,9.747-28.609c6.104-3.289,12.473-6.869,16.242-12.919c2.525-4.053,3.764-8.693,5.602-13.06
					c1.951-4.635,4.787-8.755,7.714-12.819c15.236-21.157,40.961-21.298,70.749-21.462l2.415-0.012
					c29.091,0,192.523,13.494,228.06,16.458c2.715,9.644,9.91,3.059,11.398,9.788c-15.724,1.605-24.163,33.161-27.421,40.29
					c-27.706,60.616-98.876,31.712-142.398,15.163c-31.676-12.045-91.975,15.926-106.257,22.136
					c-17.858,7.764-17.373,32.63-16.305,45.809c2.122,26.174-20.569,29.568-37.244,46.954
					c-14.96,15.599-12.953,37.187-13.927,58.082c-0.931,19.983-2.189,40.468-3.749,60.447c-1.413,18.109-4.246,42.132-2.623,60.539
					c2.303,26.121,15.523,68.8-5.775,92.27C393.213,454.309,341.97,457.439,325.985,434.274z"/>
				<path style="fill-rule:evenodd;clip-rule:evenodd;fill:none;stroke:#87D2E5;stroke-width:0.5;stroke-miterlimit:10;" d="
					M419.785,309.896c-0.289,12.116,0.964,24.415,4.73,35.975c3.794,11.643,11.66,20.839,15.913,32.202
					c9.675,25.859-5.874,55.846-26.014,72.066c-12.295,9.901-28.081,15.742-43.641,17.755
					c-33.022,4.272-57.107-21.532-79.555-43.564c-20.772-20.387-37.287-36.03-73.422-42.497
					c-13.167-2.357-25.534-4.553-37.273-11.843c-26.773-16.628-28.687-56.373-15.042-84.316c2-4.095,4.093-8.289,6.444-12.193
					c8.557-14.208,26.409-21.227,41.596-25.459c12.85-3.581,25.782-8.243,38.816-11.728c12.379-3.31,25.336-5.414,36.264-12.564
					c4.661-3.049,8.363-7.197,10.309-12.46c2.754-7.449,6.146-11.999,9.021-19.414c4.166-10.74,15.206-17.446,25.152-22.09
					c11.469-5.355,24.223-9.803,37.036-8.912c12.039,0.837,26.518,3.751,35.93-5.974c6.365-6.576,8.675-18.782,8.913-27.241
					c0.563-20.057-6.385-36.258-11.517-59.497c-1.785-8.082-1.899-17.221,0.953-25.183c2.669-7.451,9.752-11.746,15.988-15.94
					c5.551-3.734,10.309-8.682,13.368-14.665c3.373-6.596,6.064-13.204,10.467-19.268c16.021-22.063,40.77-22.456,70.573-22.642
					c0.284-0.002,2.193-0.012,2.478-0.014c1.29-0.003,2.73,0.009,4.308,0.035c36.147,0.612,206.97,14.72,229.891,16.615
					c1.825,6.429,4.756,17.098,6.741,25.416c-6.128,5.911-10.032,12.988-11.496,20.308c-12.802,64.01-50.252,88.327-83.368,73.905
					c-45.081-19.632-69.424-43.962-112.654-31.959c-10.147,2.819-25.938,11.803-32.312,19.248
					c-10.689,12.486-22.301,24.382-31.779,37.846c-10.068,14.301-32.401,36.197-42.425,50.533
					c-15.142,21.657-7.012,38.925-13.232,63.731C425.878,266.329,420.296,288.492,419.785,309.896z"/>
				<path style="fill-rule:evenodd;clip-rule:evenodd;fill:none;stroke:#87D2E5;stroke-width:0.75;stroke-miterlimit:10;" d="
					M438.484,279.108c-0.314,20.434,4.251,40.613,15.921,59.168c6.271,9.97,21.277,12.925,22.837,27.642
					c2.402,22.665-17.494,37.352-30.352,71.52c-7.455,19.809-27.983,32.587-46.406,40.8c-15.662,6.982-33.042,12.207-50.266,13.055
					c-14.47,0.712-27.454-5.886-37.919-15.483c-24.122-22.12-36.548-54.285-62.933-74.363c-9.433-7.178-20.095-12.551-31.402-16.082
					c-13.403-4.117-27.068-5.668-39.44-12.936c-38.315-22.508-30.303-79.701-7.246-110.219
					c12.375-16.379,31.603-25.526,51.14-30.259c11.581-2.805,23.51-2.829,35.227-4.712c18.079-2.907,32.825-15.169,40.318-31.669
					c7.814-17.208,22.095-30.624,39.742-37.379c8.813-3.373,18.225-5.069,27.649-5.247c10.008-0.189,21.934,4.497,30.998-1.488
					c17.763-11.732,13.203-38.453,9.195-55.917c-4.068-17.726-13.801-46.805,0.81-62.266c4.486-4.747,10.652-7.382,15.271-11.998
					c3.98-3.977,7.126-8.791,9.143-14.045c2.216-5.772,5.374-10.913,9.009-15.918c16.679-22.97,43.73-23.982,73.3-24.19
					c0.569-0.005,1.95-0.012,2.521-0.016c1.392-0.006,2.862-0.004,4.401,0.005c34.033,0.214,222.575,15.89,234.036,16.838
					c0.912,3.215,4.134,14.514,6.604,24.42c-0.318,1.812-0.802,3.653-1.529,5.445c-0.065,5.638-1.766,10.536-2.388,13.072
					c-10.979,44.779-24.728,127.273-81.263,109.846c-17.302-5.334-29.454-17.719-44.119-26.856
					c-17.29-10.773-36.032-20.355-56.591-22.45c-31.424-3.202-51.69,25.481-70.955,47.304
					c-17.13,19.404-30.716,38.953-40.909,62.607C451.573,223.594,438.932,249.924,438.484,279.108z"/>
				<path style="fill-rule:evenodd;clip-rule:evenodd;fill:none;stroke:#84FEA3;stroke-width:2;stroke-miterlimit:10;" d="
					M222.851,390.604c-3.986-1.613-8.208-2.56-12.487-2.979c-18.126-1.775-83.166-13.576-68.47-91.343
					c10.504-55.585,34.715-68.349,75.231-72.392c40.516-4.043,55.605-2.87,72.684-39.525c12.373-26.555,22.363-29.143,48.956-34.171
					c47.143-8.913,68.359-7.599,59.434-46.872c-8.555-37.641-14.751-64.261,9.158-82.242c19.161-14.41,15.983-17.105,20.017-37.279
					c6.249-31.244,59.128-19.859,91.048-20.044c31.919-0.185,238.181,17.06,238.181,17.06s13.505,45.868,9.822,44.391
					c-3.683-1.477-3.408,121.371-41.969,138.317c-27.466,12.07-45.173,4.257-89.997-35.676
					c-44.52-39.663-86.528-29.216-104.42-3.237c-18.24,26.484-36.776,62.431-50.918,91.858
					c-18.344,38.167-36.374,72.449-10.844,106.81c8.481,11.415,29.146,14.273,30.791,32.777
					c2.26,25.422-15.391,33.213-29.601,79.254c-17.028,55.17-108.935,84.488-132.4,80.022
					C216.514,492.39,284.139,415.401,222.851,390.604z"/>
			</g>
			<g>
				<path style="fill-rule:evenodd;clip-rule:evenodd;fill:none;stroke:#87D2E5;stroke-miterlimit:10;" d="M-12.276,197.025
					c71.258-60.488,147.97-90.315,152.665-28.108c4.695,62.207,28.184,48.262-6.527,97.313c-8.597,12.149-6.09,39.351-12.102,46.087
					c-14.642,16.405-74.504-20.323-110.742-8.557c-38.76,12.584-47.458,48.698-62.922,64.935
					c-15.464,16.237-49.533-102.05-22.835-156.87C-67.532,197.025-76.245,251.326-12.276,197.025z"/>
				<path style="fill-rule:evenodd;clip-rule:evenodd;fill:none;stroke:#87D2E5;stroke-width:0.75;stroke-miterlimit:10;" d="
					M-52.041,223.331c4.805-9.866,2.076,25.079,49.592-13.517c8.586-6.975,17.426-13.5,26.203-19.545
					c46.108-31.836,88.968-43.401,95.191-4.938c7.137,44.116,22.136,37.119-1.105,72.369c-6.165,9.351-5.078,28.757-9.557,34.457
					c-11.972,15.234-58.476-6.92-88.082-1.882c-31.329,5.331-46.708,34.223-57.017,45.047S-69.839,259.877-52.041,223.331z"/>
				<path style="fill-rule:evenodd;clip-rule:evenodd;fill:none;stroke:#87D2E5;stroke-width:0.5;stroke-miterlimit:10;" d="
					M-29.343,234.837c2.402-4.933,5.765,10.761,36.72-12.234c6.171-4.584,12.687-9.028,19.249-13.46
					c32.115-21.79,62.154-31.863,70.873-7.398c9.236,25.916,16.289,26.169,4.317,47.425c-3.712,6.591-4.016,18.212-7.013,22.828
					c-9.202,14.174-42.394,6.564-65.421,4.793c-23.842-1.834-45.958,19.747-51.113,25.16
					C-26.886,307.362-38.242,253.11-29.343,234.837z"/>
				<path style="fill-rule:evenodd;clip-rule:evenodd;fill:none;stroke:#87D2E5;stroke-width:0.25;stroke-miterlimit:10;" d="
					M-6.645,268.578c0,0,28.807-14.058,45.209-5.272s36.637,1.819,42.761-11.468c4.328-9.389,10.913-20.625-5.272-33.68
					c-12.325-9.941-28.433-1.887-46.555,9.858C9.078,241.252-6.645,246.342-6.645,246.342V268.578z"/>
			</g>
			<g>
				<path style="fill-rule:evenodd;clip-rule:evenodd;fill:none;stroke:#84FEA3;stroke-width:2;stroke-miterlimit:10;" d="
					M381.067,182.987c0,0-21.753-7.589-34.064,0c-21.155,13.04-15.968,39.387-48.967,57.484
					c-33,18.097-147.999,43.044-119.835,93.382s42.895,29.862,88.669,45.83c45.774,15.968,55.65,34.303,68.424,47.077
					c12.774,12.774,19.641,17.8,42.003,15.75c23.376-2.143,29.796-17.044,28.767-41.039c-0.899-20.973-5.134-30.888-6.234-53.18
					c-1.123-22.773,1.807-30.581,2.803-63.359C403.8,246.558,415.558,201.084,381.067,182.987z"/>
				<path style="fill-rule:evenodd;clip-rule:evenodd;fill:none;stroke:#87D2E5;stroke-width:0.25;stroke-miterlimit:10;" d="
					M357.792,214.571c-11.129-0.834-22.589,4.167-31.676,10.583c-12.277,8.668-14.117,15.13-35.427,26.816
					c-30.255,16.591-119.542,33.723-96.645,81.156c15.982,33.109,31.897,26.636,73.863,41.275
					c41.966,14.639,51.629,30.738,63.341,42.45c6.992,6.992,15.947,10.549,25.656,11.716c10.309,1.239,23.21,2.41,29.576-7.728
					c6.705-10.677,1.825-25.043,1.212-36.632c-0.672-12.713,0.624-25.416,1.001-38.115c0.953-32.031,3.657-62.857,1.336-94.937
					c-0.968-13.372-8.542-27.105-20.891-33.426C365.472,215.851,361.652,214.86,357.792,214.571z"/>
				<path style="fill-rule:evenodd;clip-rule:evenodd;fill:none;stroke:#87D2E5;stroke-miterlimit:10;" d="M327.257,240.959
					c-15.637,5.068-29.612,14.669-43.913,22.512c-27.509,15.086-89.049,23.445-73.455,68.93c5.206,15.184,19.54,25.299,57.698,38.61
					c38.158,13.311,48.969,25.283,59.617,35.932c10.648,10.649,18.323,14.222,36.575,10.064
					c23.996-5.47,11.614-39.204,13.907-55.174c1.661-11.566,6.245-22.669,6.586-34.439c0.415-14.347-0.658-26.514-2.092-40.795
					c-1.203-11.982-3.066-25.86-9.389-36.356c-8.168-13.557-25.253-14.283-39.138-11.065
					C331.487,239.68,329.357,240.279,327.257,240.959z"/>
			</g>
			<path style="fill-rule:evenodd;clip-rule:evenodd;fill:none;stroke:#87D2E5;stroke-miterlimit:10;" d="M480.155-14.701
				c-2.959,0.986-15.131,41.176-43.736,53.013c-28.605,11.837-23.238,19.868-13.502,49.527c10.417,31.736,4.662,33.467,7.184,47.2
				c1.674,9.113,26.625,13.452,26.388-9.377c-0.085-8.191-12.964-48.461,17.414-62.545c28.36-13.148,89.304-44.188,138.28-19.389
				c74.65,37.798,136.174-36.684,112.277-52.085L480.155-14.701z"/>
			<path style="fill-rule:evenodd;clip-rule:evenodd;fill:none;stroke:#87D2E5;stroke-width:0.5;stroke-miterlimit:10;" d="
				M565.573-4.09c-1.779,0.279-11.748-2.049-29.165,1.957c-17.417,4.006-27.938,4.026-48.555,19.921
				c-15.27,11.773-33.322,21.303-31.992,27.777c0.766,3.713,10.509,3.852,13.277,3.774c6.929-0.197,13.538-3.251,19.322-6.861
				c11.652-7.273,22.05-15.245,34.763-20.743c13.135-5.681,27.108-9.644,41.418-10.685c16.705-1.215,33.473,1.878,48.427,9.501
				c28.235,14.393,88.647-13.149,76.514-24.2L565.573-4.09z"/>
			<g>
				<path style="fill-rule:evenodd;clip-rule:evenodd;fill:none;stroke:#87D2E5;stroke-width:0.25;stroke-miterlimit:10;" d="
					M823.901,484.909c0,0,14.15-119.477-56.841-129.158c-70.991-9.681-48.897,37.025-109.394,72.205
					c-21.815,12.686-67.345,10.71-113.752-21.562c-41.139-28.609-38.673,19.955-53.579,45.968
					c-21.995,38.386-59.572,44.089-99.907,55.383c-40.336,11.294,436.889,12.693,436.889,12.693L823.901,484.909z"/>
				<path style="fill-rule:evenodd;clip-rule:evenodd;fill:none;stroke:#87D2E5;stroke-width:0.5;stroke-miterlimit:10;" d="
					M813.453,492.521c-0.678-1.696,24.266-93.404-39.603-109.942c-50.996-13.205-50.832,22.804-80.212,53.507
					c-4.43,4.63-10.016,8.559-16.983,11.799c-20.876,9.634-62.318,4.356-104.862-18.511c-1.989-1.069-3.913-1.97-5.753-2.764
					c-32.474-14.012-34.232,15.821-51.083,36.68c-3.167,3.92-6.4,7.704-10.108,11.075c-25.796,23.45-63.935,22.68-78.736,33.379
					c-26.89,7.529,382.298,8.462,382.298,8.462L813.453,492.521z"/>
				<path style="fill-rule:evenodd;clip-rule:evenodd;fill:none;stroke:#87D2E5;stroke-width:0.75;stroke-miterlimit:10;" d="
					M803.006,500.133c-1.357-3.392,34.354-66.397-22.365-90.727c-39.721-17.039-48.471,19.505-69.787,48.063
					c-3.585,4.803-8.648,8.153-15.21,10.345c-19.936,6.582-57.389-1.882-95.974-15.459c-1.853-0.652-3.679-1.193-5.459-1.691
					c-29.963-8.378-34.546,6.737-54.632,23.556c-3.263,2.732-6.64,5.634-10.523,8.337c-29.399,20.466-72.566,13.565-67.259,25.188
					c-13.445,3.765,327.707,4.231,327.707,4.231L803.006,500.133z"/>
				<path style="fill-rule:evenodd;clip-rule:evenodd;fill:none;stroke:#87D2E5;stroke-miterlimit:10;" d="M792.558,507.745
					c-2.035-5.087,43.611-37.944-5.127-71.511c-28.974-19.955-45.613,16.506-59.361,42.618
					c-11.23,21.329-58.088,1.038-105.686-4.136c-31.204-3.392-35.924-1.085-69.119,16.032c-33.196,17.116-81.196,4.45-55.782,16.997
					H792.558z"/>
			</g>
		</g>
	</g>
</g>
</svg>
